<svg xmlns="http://www.w3.org/2000/svg" width="32" height="32" viewBox="0 0 24 24" fill="none" stroke="white" stroke-width="2" stroke-linecap="round" stroke-linejoin="round">
  <defs>
    <linearGradient id="bg" x1="0%" y1="0%" x2="100%" y2="100%">
      <stop offset="0%" style="stop-color:#3b82f6"/>
      <stop offset="100%" style="stop-color:#8b5cf6"/>
    </linearGradient>
  </defs>
  <rect width="24" height="24" rx="6" fill="url(#bg)"/>
  <g transform="translate(3,3) scale(0.75)">
    <path d="M9.5 2A5.5 5.5 0 0 0 5 7.5c0 .5.1 1 .2 1.5A4.5 4.5 0 0 0 2 13.5 4.5 4.5 0 0 0 6.5 18h1A4.5 4.5 0 0 0 12 22a4.5 4.5 0 0 0 4.5-4h1A4.5 4.5 0 0 0 22 13.5a4.5 4.5 0 0 0-3.2-4.3c.1-.5.2-1 .2-1.5A5.5 5.5 0 0 0 14.5 2 5.5 5.5 0 0 0 12 2.7 5.5 5.5 0 0 0 9.5 2"/>
    <path d="M12 2.7V22"/>
  </g>
</svg>
